<svg version="1.1" id="layer_1" xmlns="http://www.w3.org/2000/svg" xmlns:xlink="http://www.w3.org/1999/xlink" x="0px"
	y="0px" viewBox="0 0 1024 1024" style="enable-background:new 0 0 1024 1024;" xml:space="preserve">
	<style type="text/css">
		.st0 {
			fill: none;
			stroke: white;
			stroke-width: 40;
			stroke-linecap: round;
			stroke-linejoin: bevel;
		}

		.st1 {
			fill: none;
			stroke: white;
			stroke-width: 40;
			stroke-linecap: round;
			stroke-linejoin: bevel;
			stroke-dasharray: 53.0379, 1.7679;
		}

		.st2 {
			fill: none;
			stroke: white;
			stroke-width: 40;
			stroke-linecap: round;
			stroke-linejoin: bevel;
			stroke-dasharray: 132.5947, 23.867, 53.0379, 1.7679;
		}

		.st3 {
			fill: none;
			stroke: white;
			stroke-width: 40;
			stroke-linecap: round;
			stroke-linejoin: bevel;
			stroke-dasharray: 46.1181, 1.5373;
		}

		.st4 {
			fill: none;
			stroke: white;
			stroke-width: 40;
			stroke-linecap: round;
			stroke-linejoin: bevel;
			stroke-dasharray: 54.5261, 1.8175;
		}

		.st5 {
			fill: none;
			stroke: white;
			stroke-width: 40;
			stroke-linecap: round;
			stroke-linejoin: bevel;
			stroke-dasharray: 136.3151, 24.5367, 54.5261, 1.8175;
		}

		.st6 {
			fill: none;
			stroke: white;
			stroke-width: 40;
			stroke-linecap: round;
			stroke-linejoin: bevel;
			stroke-dasharray: 65.5565, 2.1852;
		}

		.st7 {
			fill: none;
			stroke: white;
			stroke-width: 40;
			stroke-linecap: round;
			stroke-linejoin: bevel;
			stroke-dasharray: 163.8912, 29.5004, 65.5565, 2.1852;
		}

		.st8 {
			fill: none;
			stroke: white;
			stroke-width: 2;
			stroke-linecap: round;
			stroke-linejoin: round;
			stroke-miterlimit: 10;
		}
	</style>
	<g>
		<g>
			<path class="st0" d="M885.55,849.54c0.22-0.18,0.44-0.36,0.65-0.54c1.46-1.22,0.9-4.98,1.27-7.49c0.04-0.27,0.11-0.8,0.11-0.8
			l0.55-4.18c0,0,0.12-1.04,0.18-1.57c0.14-1.28,0.27-2.57,0.39-3.87c0.04-0.47,0.09-0.94,0.13-1.42c0.14-1.73,0.68-3.93,0.37-5.2
			c-1.56-6.3-10.52-17.19-16.24-20.25c-4.74-2.53-14.2-1.23-21.46-1.23c-0.4,0-0.79,0.01-1.18,0.01c0.69-6.15,1.08-12.39,1.15-18.71
			c0.01-0.77,0.03-1.53,0.03-2.3c0-1.66-0.03-3.31-0.07-4.95c0-0.05,0-0.1-0.01-0.16c-0.04-1.61-0.11-3.22-0.19-4.82
			c4.95-13.58,8.38-27.89,10.06-42.74" />
			<path class="st1" d="M862.48,705.51c-0.14-10.75-1.19-21.27-3.08-31.51c-1.35-7.35-3.13-14.55-5.31-21.58" />
			<path class="st2" d="M853.83,651.58c-5.13-16.23-12.41-31.5-21.52-45.48c-2.27-3.49-2.12-8.05,0.39-11.36
			c23.72-31.34,37.8-70.39,37.8-112.73c0-5.39-0.24-10.72-0.69-16c-0.31-3.61-0.71-7.19-1.22-10.73" />
			<path class="st0" d="M868.46,454.4c-3.75-25.36-12.59-49.05-25.45-70.02c4.27-3.76,8.37-7.71,12.29-11.84
			c8.82-16.87,15.15-35.26,18.49-54.66" />
			<path class="st3"
				d="M876.17,297.27c0.22-3.73,0.33-7.49,0.33-11.27c0-2.38-0.04-4.74-0.13-7.1c-0.36-9.64-1.46-19.09-3.22-28.3" />
			<path class="st0" d="M873.07,249.84c0.86-7.28,1.33-14.69,1.33-22.2c0-18.07-2.57-35.53-7.35-52.06
			c-6.28,3.89-12.3,8.16-18.06,12.74c-19.38,15.44-35.62,34.65-47.62,56.52c-12.23-2.51-24.89-3.84-37.86-3.84
			c-15.14,0-29.86,1.81-43.96,5.21c-10.62-19.36-24.56-36.64-41.07-51.06c-7.68-6.71-15.91-12.82-24.62-18.21
			c-4.78,16.53-7.35,33.99-7.35,52.06c0,16.7,2.19,32.88,6.3,48.29c0.83,3.1,1.75,6.15,2.72,9.18c0.03,3.55,0.17,7.06,0.39,10.56
			c-0.1,0.01-0.2,0.03-0.3,0.04c0.11,0.22,0.22,0.45,0.34,0.67c1.71,25.46,8.52,49.51,19.41,71.17" />
			<path class="st4" d="M676.22,393.27c-1.03,18.92-4.87,37.1-11.11,54.11" />
			<path class="st5"
				d="M664.8,448.23c-0.89,2.39-1.83,4.76-2.82,7.11c-0.78,1.85-2.14,3.4-3.82,4.49
			c-30.63,19.79-55.1,48.28-69.92,81.99c0,0,0,0.01,0,0.01c-0.27,0.63-0.74,1.15-1.34,1.47c-26.97,14.54-49.96,35.51-66.92,60.86" />
			<path class="st0" d="M519.47,604.91c-13.6,20.55-23.25,43.94-27.88,69.09h-0.19c-1.91,10.71-2.9,21.74-2.9,33
			c0,28.1,6.21,54.76,17.31,78.67c-17.48,5.41-36.06,8.33-55.31,8.33c-6.36,0-12.64-0.32-18.83-0.94" />
			<path class="st6" d="M402.67,787.81c-0.69-0.18-1.38-0.37-2.07-0.56c-1.74-0.48-3.48-0.98-5.21-1.51
			c-15.89-4.39-32.62-6.74-49.9-6.74c-2.89,0-5.76,0.1-8.59,0.29" />
			<path class="st7"
				d="M335.82,779.36c-26.06,1.92-49.9,11.17-73.53,19.15c-8.21,2.77-17.3,2.49-26.29,2.49
			c-30.96,0-54.83-20.1-82.71-27.16c-11.17-2.83-24.75,0.32-33.14,7.79c-5.52,4.92-10.2,13.48-8.24,20.7
			c8.73,32.2,55.99,37.52,90.19,43.69c10.84,1.96,22,2.99,33.4,2.99c63.97,0,255.87,0,255.87,0h27.41c0,0,292.82,58.08,365.92,1.21" />
		</g>
	</g>
	<path class="st8" d="M843.8,304.85c25.76,9.43,48.86,24.37,67.89,43.38" />
	<path class="st8" d="M837.95,320.82c23.42,8.57,44.42,22.15,61.72,39.44" />
	<path class="st8" d="M832.79,334.91c21.35,7.82,40.5,20.19,56.27,35.95" />
	<path class="st8" d="M689.26,304.9c-25.76,9.43-48.86,24.37-67.89,43.38" />
	<path class="st8" d="M695.11,320.87c-23.42,8.57-44.42,22.15-61.72,39.44" />
	<path class="st8" d="M700.26,334.96c-21.35,7.82-40.5,20.19-56.27,35.95" />
</svg>