<?xml version="1.0" standalone="no"?><!DOCTYPE svg PUBLIC "-//W3C//DTD SVG 1.1//EN" "http://www.w3.org/Graphics/SVG/1.1/DTD/svg11.dtd"><svg t="1769080138229" class="icon" viewBox="0 0 1024 1024" version="1.1" xmlns="http://www.w3.org/2000/svg" p-id="9458" xmlns:xlink="http://www.w3.org/1999/xlink" width="200" height="200"><path d="M512.345366 6.139837c279.580556 0 506.184551 226.64902 506.184551 506.185574 0 279.580556-226.603994 506.184551-506.184551 506.184551-279.534508 0-506.184551-226.603994-506.184551-506.184551C6.160815 232.788857 232.809835 6.139837 512.345366 6.139837L512.345366 6.139837zM515.268952 541.913287c-32.689517 0-28.170596-28.702716-65.288982-28.702716-16.786315 0-45.533033 30.651091-57.757448 40.926108-18.337647 15.371082-35.612079 29.633924-53.329603 45.445028l-93.148493 78.754668c-23.342638 22.147416 1.727341 37.116339 30.695093 37.116339L746.12683 715.452715c13.198603 0 41.370223-6.553253 41.370223-17.540492 0-21.437242-12.757558-24.049742-35.346019-44.203758L605.627912 527.960507c-23.51967-22.412452-37.47245-24.228821-62.897515-3.233648-4.428869 3.631714-8.060583 6.112208-12.667507 9.655917C525.944082 537.483394 521.469164 541.913287 515.268952 541.913287L515.268952 541.913287zM182.535825 414.524968l0 206.938096c0 17.364483 5.493108 31.626301 23.121604 24.892947 7.043417-2.65855 77.868485-63.33856 86.283132-71.445192l70.693062-59.839877c12.977569-10.453073 38.003546-28.879748 38.003546-41.636283 0-14.926968-10.719132-19.400862-24.095791-30.030967l-122.161271-95.939049c-13.81975-10.985192-14.616906-17.983583-34.016745-4.960988C202.867896 354.286002 182.535825 385.77825 182.535825 414.524968L182.535825 414.524968zM625.116779 468.650703c0 16.123212 9.742898 18.957771 20.286022 29.05678l18.159592 15.281031c2.835581 2.260483 3.809769 3.765767 6.64535 6.158257l62.807465 53.417607c4.782933 4.428869 8.060583 6.687306 12.71151 11.072173l31.051203 26.310226c11.692297 10.453073 55.720046 57.361429 62.629409 23.653723 4.428869-21.527292 2.214435-174.782745 2.214435-207.91433 0-40.838104-24.8909-80.880075-48.457642-88.49859-13.508665-4.384867-10.984169 0-24.758893 10.453073l-100.768031 79.107709C653.375379 438.309674 625.116779 455.629131 625.116779 468.650703L625.116779 468.650703zM313.069787 326.912561c0 5.315052 16.96437 17.894555 21.570271 21.438265l48.28061 37.737486c8.28264 6.201236 16.122189 12.623505 24.095791 18.868743l72.331375 56.607252c16.609283 12.490475 14.83794 15.058974 35.922141 15.058974 14.174837 0 38.35761-22.500457 52.354392-33.662681l120.477932-94.433766c6.511297-5.050016 21.437242-14.793938 21.437242-21.615297 0-3.720741-2.65855-6.333242-6.377244-6.333242L319.403029 320.578296C315.683311 320.578296 313.069787 323.19182 313.069787 326.912561z" fill="#50b0e0" p-id="9459"></path></svg>